<svg width="643" height="592" viewBox="0 0 643 592" fill="none" xmlns="http://www.w3.org/2000/svg">
<path fill-rule="evenodd" clip-rule="evenodd" d="M155.684 70.6902C86.4997 114.008 23.616 176.709 4.27632 242.826C-13.6054 303.96 44.4327 342.598 60.377 396.523C73.1956 439.877 58.5077 493.379 88.3384 527.135C121.387 564.532 172.12 589.138 232.5 591.296C295.738 593.556 371.366 582.47 426.185 539.211C479.317 497.284 465.433 431.508 501.298 379.181C540.54 321.929 643.284 281.571 642.701 223.323C642.13 166.262 540.841 174.328 498.89 138.407C452.42 98.6167 454.196 17.108 386.202 3.69235C315.759 -10.2066 226.828 26.1452 155.684 70.6902Z" fill="#C0E9FA"/>
</svg>
