<svg width="536" height="533" viewBox="0 0 536 533" fill="none" xmlns="http://www.w3.org/2000/svg">
<path fill-rule="evenodd" clip-rule="evenodd" d="M171.198 15.4475C105.479 33.3762 40.585 70.7224 10.2643 124.472C-17.7707 174.17 20.7699 226.79 21.7747 280.33C22.5826 323.374 -1.17232 367.161 15.562 406.747C34.1015 450.604 69.8201 488.327 118.332 508.743C169.141 530.127 232.955 543.255 287.004 520.986C339.39 499.402 342.679 435.799 383.357 399.549C427.864 359.888 520.155 354.895 532.57 302.154C544.733 250.487 516.531 131.489 490.442 86.2414C461.543 36.1201 425.253 58.4035 373.054 25.499C318.975 -8.59071 238.777 -2.9888 171.198 15.4475Z" fill="#C0E9FA"/>
</svg>
