<svg width="252" height="252" viewBox="0 0 252 252" fill="none" xmlns="http://www.w3.org/2000/svg">
<g id="fa-solid:paw" clip-path="url(#clip0_386_11840)">
<path id="Vector" d="M126 110.25C86.9153 110.25 31.4999 170.671 31.4999 208.811C31.4999 225.988 44.6954 236.25 66.8094 236.25C90.8478 236.25 106.721 223.906 126 223.906C145.446 223.906 161.364 236.25 185.19 236.25C207.304 236.25 220.5 225.988 220.5 208.811C220.5 170.671 165.084 110.25 126 110.25ZM53.5105 104.044C48.3917 86.9892 32.6221 75.9445 18.2896 79.3701C3.95706 82.7958 -3.50943 99.3973 1.60932 116.452C6.72807 133.506 22.4978 144.551 36.8303 141.125C51.1628 137.699 58.6292 121.098 53.5105 104.044ZM95.2086 93.8159C110.437 89.8094 118.056 69.236 112.228 47.8652C106.401 26.4944 89.3319 12.4228 74.1036 16.4292C58.8753 20.4356 51.2563 41.0091 57.0838 62.3798C62.9113 83.7506 79.9853 97.8272 95.2086 93.8159ZM233.705 79.3751C219.373 75.9495 203.608 86.9941 198.484 104.048C193.366 121.103 200.832 137.704 215.165 141.13C229.497 144.555 245.262 133.511 250.385 116.456C255.504 99.4022 248.038 82.8007 233.705 79.3751ZM156.791 93.8159C172.019 97.8223 189.088 83.7506 194.916 62.3798C200.743 41.0091 193.124 20.4405 177.896 16.4292C162.668 12.4179 145.599 26.4944 139.771 47.8652C133.944 69.236 141.563 89.8094 156.791 93.8159Z" fill="#16324F"/>
</g>
<defs>
<clipPath id="clip0_386_11840">
<rect width="252" height="252" fill="white"/>
</clipPath>
</defs>
</svg>
